<?xml version="1.0" encoding="utf-8" ?>
<svg baseProfile="full" height="12100.0" version="1.1" width="12150.0" xmlns="http://www.w3.org/2000/svg" xmlns:ev="http://www.w3.org/2001/xml-events" xmlns:xlink="http://www.w3.org/1999/xlink"><defs /><rect fill="#FFFFFF" height="12100.0" stroke="none" stroke-width="0" width="12150.0" x="0.0" y="0.0" /><polygon fill="#FFFFFF" points="50.0,12050.0 6050.0,12050.0 6050.0,2600.0 50.0,2600.0" stroke="none" stroke-width="0" /><polyline fill="none" points="50.0,12050.0 6050.0,12050.0 6050.0,2600.0 50.0,2600.0 50.0,12050.0" stroke="#000000" stroke-width="4" /><polygon fill="#FFFFFF" points="6100.0,12050.0 12100.0,12050.0 12100.0,2600.0 6100.0,2600.0" stroke="none" stroke-width="0" /><polyline fill="none" points="6100.0,12050.0 12100.0,12050.0 12100.0,2600.0 6100.0,2600.0 6100.0,12050.0" stroke="#000000" stroke-width="4" /><polygon fill="#FFFFFF" points="1250.0,8850.0 4850.0,8850.0 4850.0,4040.0 1250.0,4040.0" stroke="#000000" stroke-width="2" /><polygon fill="#FFFFFF" points="7300.0,8850.0 10900.0,8850.0 10900.0,4040.0 7300.0,4040.0" stroke="#000000" stroke-width="2" /><line stroke="#000000" stroke-width="2" x1="1550.0" x2="6050.0" y1="2550.0" y2="2550.0" /><line stroke="#000000" stroke-width="2" x1="6050.0" x2="6050.0" y1="2550.0" y2="50.0" /><line stroke="#000000" stroke-width="2" x1="6050.0" x2="50.0" y1="50.0" y2="50.0" /><line stroke="#000000" stroke-width="2" x1="50.0" x2="50.0" y1="50.0" y2="2550.0" /><line stroke="#000000" stroke-width="2" x1="1550.0" x2="1550.0" y1="2550.0" y2="1250.0" /><line stroke="#000000" stroke-width="2" x1="10550.0" x2="6100.0" y1="2550.0" y2="2550.0" /><line stroke="#000000" stroke-width="2" x1="6100.0" x2="6100.0" y1="2550.0" y2="50.0" /><line stroke="#000000" stroke-width="2" x1="6100.0" x2="12100.0" y1="50.0" y2="50.0" /><line stroke="#000000" stroke-width="2" x1="12100.0" x2="12100.0" y1="50.0" y2="2550.0" /><line stroke="#000000" stroke-width="2" x1="10550.0" x2="10550.0" y1="2550.0" y2="1250.0" /><rect fill="#FFFFFF" height="1200.0" stroke="#000000" stroke-width="2" width="300.0" x="5925.0" y="10500.0" /><rect fill="#FFFFFF" height="1620.0" stroke="#000000" stroke-width="2" width="300.0" x="5925.0" y="540.0" /><rect fill="#FFFFFF" height="300.0" stroke="#000000" stroke-width="2" width="800.0" x="2250.0" y="11750.0" /><rect fill="#FFFFFF" height="300.0" stroke="#000000" stroke-width="2" width="800.0" x="9100.0" y="11750.0" /></svg>